<svg width="245" height="111" viewBox="0 0 245 111" fill="none" xmlns="http://www.w3.org/2000/svg">
<mask id="path-1-inside-1_301_1602" fill="white">
<path d="M0 0H245V111H0V0Z"/>
</mask>
<path d="M0 0V2H245V0V-2H0V0ZM245 111V109H0V111V113H245V111Z" fill="url(#paint0_linear_301_1602)" mask="url(#path-1-inside-1_301_1602)"/>
<path d="M77.1875 22.7891V40.709H75.4297C74.388 36.5749 73.2324 33.6126 71.9629 31.8223C70.6934 29.9993 68.9518 28.5508 66.7383 27.4766C65.5013 26.8906 63.3366 26.5977 60.2441 26.5977H55.3125V77.6719C55.3125 81.0573 55.4915 83.1732 55.8496 84.0195C56.2402 84.8659 56.9727 85.6146 58.0469 86.2656C59.1536 86.8841 60.651 87.1934 62.5391 87.1934H64.7363V89H30.0684V87.1934H32.2656C34.1862 87.1934 35.7324 86.8516 36.9043 86.168C37.7507 85.7122 38.418 84.931 38.9062 83.8242C39.2643 83.043 39.4434 80.9922 39.4434 77.6719V26.5977H34.6582C30.1986 26.5977 26.9596 27.5417 24.9414 29.4297C22.1094 32.0664 20.319 35.8262 19.5703 40.709H17.7148V22.7891H77.1875ZM102.822 22.7891V49.2051C105.329 46.5684 107.624 44.7129 109.707 43.6387C111.79 42.5319 113.955 41.9785 116.201 41.9785C119.066 41.9785 121.507 42.7923 123.525 44.4199C125.576 46.0475 126.927 47.9681 127.578 50.1816C128.262 52.3626 128.604 56.0573 128.604 61.2656V79.0879C128.604 82.571 128.929 84.752 129.58 85.6309C130.231 86.4772 131.549 87.0143 133.535 87.2422V89H110.391V87.2422C112.018 87.0143 113.239 86.3633 114.053 85.2891C114.639 84.4427 114.932 82.3757 114.932 79.0879V58.7266C114.932 54.9505 114.785 52.5905 114.492 51.6465C114.199 50.6699 113.695 49.9212 112.979 49.4004C112.295 48.847 111.514 48.5703 110.635 48.5703C109.333 48.5703 108.063 49.026 106.826 49.9375C105.589 50.8164 104.255 52.3789 102.822 54.625V79.0879C102.822 82.3431 103.066 84.3776 103.555 85.1914C104.173 86.2982 105.443 86.9818 107.363 87.2422V89H84.2188V87.2422C86.1393 87.0469 87.5065 86.4284 88.3203 85.3867C88.8737 84.6706 89.1504 82.571 89.1504 79.0879V32.7012C89.1504 29.2507 88.8249 27.1022 88.1738 26.2559C87.5553 25.4095 86.237 24.8561 84.2188 24.5957V22.7891H102.822ZM178.506 64.5371H153.457C153.75 70.5918 155.361 75.377 158.291 78.8926C160.537 81.5944 163.239 82.9453 166.396 82.9453C168.35 82.9453 170.124 82.4082 171.719 81.334C173.314 80.2272 175.023 78.2578 176.846 75.4258L178.506 76.5C176.032 81.5456 173.298 85.1263 170.303 87.2422C167.308 89.3255 163.841 90.3672 159.902 90.3672C153.132 90.3672 148.005 87.763 144.521 82.5547C141.722 78.3555 140.322 73.1471 140.322 66.9297C140.322 59.3125 142.373 53.2578 146.475 48.7656C150.609 44.2409 155.443 41.9785 160.977 41.9785C165.599 41.9785 169.603 43.8828 172.988 47.6914C176.406 51.4674 178.245 57.0827 178.506 64.5371ZM166.494 61.2656C166.494 56.0247 166.201 52.4277 165.615 50.4746C165.062 48.5215 164.183 47.0404 162.979 46.0312C162.295 45.4453 161.383 45.1523 160.244 45.1523C158.551 45.1523 157.168 45.9824 156.094 47.6426C154.173 50.5397 153.213 54.5111 153.213 59.5566V61.2656H166.494ZM209.463 82.2617C203.896 87.1771 198.9 89.6348 194.473 89.6348C191.868 89.6348 189.704 88.7884 187.979 87.0957C186.253 85.3704 185.391 83.222 185.391 80.6504C185.391 77.1673 186.888 74.0423 189.883 71.2754C192.878 68.4759 199.404 64.765 209.463 60.1426V55.5527C209.463 52.1022 209.268 49.9375 208.877 49.0586C208.519 48.1471 207.819 47.3659 206.777 46.7148C205.736 46.0312 204.564 45.6895 203.262 45.6895C201.146 45.6895 199.404 46.1615 198.037 47.1055C197.191 47.6914 196.768 48.375 196.768 49.1562C196.768 49.8398 197.223 50.6862 198.135 51.6953C199.372 53.0951 199.99 54.446 199.99 55.748C199.99 57.3431 199.388 58.7103 198.184 59.8496C197.012 60.9564 195.465 61.5098 193.545 61.5098C191.494 61.5098 189.769 60.8913 188.369 59.6543C187.002 58.4173 186.318 56.9688 186.318 55.3086C186.318 52.9648 187.246 50.735 189.102 48.6191C190.957 46.4707 193.545 44.8268 196.865 43.6875C200.186 42.5482 203.636 41.9785 207.217 41.9785C211.546 41.9785 214.964 42.9062 217.471 44.7617C220.01 46.5846 221.654 48.5703 222.402 50.7188C222.858 52.0859 223.086 55.2272 223.086 60.1426V77.8672C223.086 79.9505 223.167 81.2689 223.33 81.8223C223.493 82.3431 223.737 82.7337 224.062 82.9941C224.388 83.2546 224.762 83.3848 225.186 83.3848C226.032 83.3848 226.895 82.7826 227.773 81.5781L229.238 82.75C227.611 85.1589 225.918 86.9167 224.16 88.0234C222.435 89.0977 220.465 89.6348 218.252 89.6348C215.648 89.6348 213.613 89.0326 212.148 87.8281C210.684 86.5911 209.788 84.7357 209.463 82.2617ZM209.463 78.6973V63.4141C205.524 65.7253 202.594 68.1992 200.674 70.8359C199.404 72.5938 198.77 74.3678 198.77 76.1582C198.77 77.6556 199.307 78.974 200.381 80.1133C201.195 80.9922 202.334 81.4316 203.799 81.4316C205.426 81.4316 207.314 80.5202 209.463 78.6973Z" fill="url(#paint1_linear_301_1602)"/>
<defs>
<linearGradient id="paint0_linear_301_1602" x1="5.5" y1="56" x2="245" y2="53.5" gradientUnits="userSpaceOnUse">
<stop stop-color="#7C3BED"/>
<stop offset="1" stop-color="#059669"/>
</linearGradient>
<linearGradient id="paint1_linear_301_1602" x1="-5.32693e-09" y1="65.5" x2="211.5" y2="67.5" gradientUnits="userSpaceOnUse">
<stop stop-color="#7C3BED"/>
<stop offset="1" stop-color="#059669"/>
</linearGradient>
</defs>
</svg>
